<?xml version="1.0" standalone="no"?><!DOCTYPE svg PUBLIC "-//W3C//DTD SVG 1.1//EN" "http://www.w3.org/Graphics/SVG/1.1/DTD/svg11.dtd"><svg t="1569204603910" class="icon" viewBox="0 0 1024 1024" version="1.1" xmlns="http://www.w3.org/2000/svg" p-id="4841" xmlns:xlink="http://www.w3.org/1999/xlink" width="32" height="32"><defs><style type="text/css"></style></defs><path d="M888.7 120.3c6.5-6.5 12.1-8.8 16.6-6.8 4.5 2.1 6.8 7.6 6.8 16.6v763.8c0 8.9-2.3 14.5-6.8 16.6-4.5 2.1-10-0.2-16.6-6.8L520.3 535.2c-3.2-3.2-5.3-6.4-6.8-9.8v368.4c0 8.9-2.3 14.5-6.8 16.6s-10-0.2-16.6-6.8L121.8 535.2c-6.5-6.5-9.8-14.3-9.8-23.3 0-8.9 3.3-16.8 9.8-23.3l368.4-368.2c6.5-6.5 12.1-8.8 16.6-6.8 4.5 2.1 6.8 7.6 6.8 16.6v368.4c1.4-3.5 3.6-6.8 6.8-9.8l368.3-368.5z" p-id="4842" fill="#dbdbdb"></path></svg>