<?xml version="1.0" standalone="no"?><!DOCTYPE svg PUBLIC "-//W3C//DTD SVG 1.1//EN" "http://www.w3.org/Graphics/SVG/1.1/DTD/svg11.dtd"><svg t="1569204588477" class="icon" viewBox="0 0 1024 1024" version="1.1" xmlns="http://www.w3.org/2000/svg" p-id="3664" xmlns:xlink="http://www.w3.org/1999/xlink" width="32" height="32"><defs><style type="text/css"></style></defs><path d="M166.8 871c-6 6-11.1 8.1-15.2 6.2-4.1-1.9-6.2-7-6.2-15.2V162c0-8.2 2.1-13.3 6.2-15.2 4.1-1.9 9.2 0.2 15.2 6.2l337.6 337.6c2.9 2.9 4.9 5.9 6.2 9V162c0-8.2 2.1-13.3 6.2-15.2 4.1-1.9 9.2 0.2 15.2 6.2l337.6 337.6c6 6 9 13.2 9 21.4s-3 15.4-9 21.4L532 871c-6 6-11.1 8.1-15.2 6.2-4.1-1.9-6.2-7-6.2-15.2V524.3c-1.3 3.2-3.3 6.2-6.2 9L166.8 871z" p-id="3665" fill="#ffffff"></path></svg>